# xmcd
#
# Track frame offsets:
#	150
#	21250
#	39475
#	59412
#	77100
#	95375
#	110642
#	128520
#	148750
#	166750
#	183402
#	197712
#	212037
#
# Disc length: 3082 seconds
#
# Revision: 1
# Processed by: cddbd v1.5.1PL0 Copyright (c) Steve Scherf et al.
# Submitted via: CDex 1.50Beta5
#
DISCID=b20c080d
DTITLE=香坂みゆき - スーパー・バリュー/香坂みゆき
DYEAR=2001
DGENRE=Pop
TTITLE0=1965
TTITLE1=ニュアンスしましょ
TTITLE2=Tokyo Magic Town
TTITLE3=Tokyo Shadow
TTITLE4=レイラ
TTITLE5=KIRARI
TTITLE6=Magic
TTITLE7=Horizon
TTITLE8=One Way Town
TTITLE9=東京が好き
TTITLE10=Get Back Tokyo
TTITLE11=気分をかえて
TTITLE12=サヨナラの鐘
EXTD=
EXTT0=
EXTT1=
EXTT2=
EXTT3=
EXTT4=
EXTT5=
EXTT6=
EXTT7=
EXTT8=
EXTT9=
EXTT10=
EXTT11=
EXTT12=
PLAYORDER=
